<?xml version="1.0" encoding="UTF-8"?>
<svg xmlns="http://www.w3.org/2000/svg" xmlns:xlink="http://www.w3.org/1999/xlink" viewBox="0 0 512 318.1">
  <defs>
    <style>
      .cls-1, .cls-2 {
        stroke-width: 2px;
      }

      .cls-1, .cls-2, .cls-3, .cls-4 {
        stroke-miterlimit: 10;
      }

      .cls-1, .cls-3, .cls-4 {
        fill: none;
        stroke: #fff;
      }

      .cls-5 {
        fill: url(#linear-gradient);
      }

      .cls-5, .cls-6, .cls-7, .cls-8 {
        stroke-width: 0px;
      }

      .cls-2 {
        fill: #00e209;
        stroke: #005f06;
      }

      .cls-4 {
        stroke-width: 1.06px;
      }

      .cls-6 {
        fill: #6cff56;
      }

      .cls-7 {
        fill: url(#linear-gradient-2);
      }

      .cls-8 {
        fill: #fff;
      }
    </style>
    <linearGradient id="linear-gradient" x1="0" y1="159.56" x2="510.98" y2="159.56" gradientUnits="userSpaceOnUse">
      <stop offset="0" stop-color="#fff"/>
      <stop offset=".66" stop-color="#057500"/>
    </linearGradient>
    <linearGradient id="linear-gradient-2" x1="242.15" y1="99.26" x2="272.23" y2="99.26" gradientUnits="userSpaceOnUse">
      <stop offset="0" stop-color="#fff"/>
      <stop offset=".1" stop-color="#eff8ef"/>
      <stop offset=".29" stop-color="#c5e5c6"/>
      <stop offset=".55" stop-color="#81c884"/>
      <stop offset=".87" stop-color="#25a02a"/>
      <stop offset="1" stop-color="#009005"/>
    </linearGradient>
  </defs>
  <g id="Layer_8" data-name="Layer 8">
    <g>
      <path class="cls-5" d="M505.62,143.49c-9.94-10.92-57.58-38.37-32.29-29.62-18.91-15.3-31.66-23.53-13.53-15.01,9.87,4.64-52.8-26-27.43-17.79,25.37,8.21-18.06-10.7-27.12-15.99-9.51-5.56-55.49-20.71-28.83-16.17s-27.8-9.46-29.06-14.66c-40.31-10.76-49.62-15.34-34.22-14.69,10.69.45-59.74-8.35-30.48-9.93,29.27-1.57-22.48-4.68-33.7-5.09s-66.65,15.51-33.43,2.42c33.22-13.09-32.16,8.3-47.4,15.78-11.66,5.72-65.45,46.44-35.99,19.43,29.45-27.01-40.81,18.77-48.23,42.4-7.42,23.63-4.11,6.26-5.94,9.51-13.28,23.56-18.98,50.8-27.58,76.25-4.05,11.98-24.94,16.11-35.56,17.75-6.7,1.04-16.92,1.34-14.44,11,.19.75,1.76,8.48,2.29,8.53.01,0,2.91.26,2.91.26l15.36-5.83c19.57-6.84,34.52,3.69,42.11,22.62,6.74,6.6,10.82,15.76,16.33,23.41,5.16,7.17,10.83,13.98,17.06,20.25,32.98,33.15,79.54,44.6,124.99,47,6.65.35,13.5,1.86,20.01.35,2.95-.68,11.94.9,8.98-1.43-2.96-2.33,13.77-.58,20.71-.75,5.18-.13,10.25-1.5,15.34-2.49.24-.07,6.68,1.06.75-.15s17.52-3.97,26.06-6.72c6.01-1.94,34.16-5.87,17.75-6.61-16.4-.74,15.52-7.1,23.09-11.26,12.06-6.63,63.25-30.89,35.02-22.38-28.23,8.51,23.5-18.13,34.29-27.75.66-.59,17.67-10.1,1.97-1.76-15.7,8.33,27.03-28.31,27.03-28.31.25-.26,15.1-12.29.75-.78-7.84,6.29,1.33-6.05,14.71-19.61,2.25-2.28,18.19-11.74,7.05-6.86-11.15,4.88,2.11-1.95,3.18-2.9,3.78-3.39,24.56-13.71,11.36-9.27-13.2,4.43,9.33-6.11,13.17-7.3,2.72-.84,5.71-1.55,7.56-3.71.24-.28-3.32-4.78.59-.84,3.91,3.94-2.71-8.59-5.17-11.3ZM437.35,148.58s-125.26,13.4-170.65,12.64c-45.39-.77-174.46,20.45-174.46,15.86v-34.81h8.08v-15.79h6.2v-4.9h9.08v4.28h4.92v9.62h24.91v5.81h7.14v-18.25h5.59v-5.11l10.2-3.65v19.11h7.75v-30.44l8.22-2.55,8.27,1.7v16.46h7.37v-18.76h5.26v-6.15h7.09v3.83h3.4v18.7h7.94v-6.79h7.2V18.04l17.98-7.64v38.7h6.77v10.72h21.56v-7.66h5.06v-7.24h4.02v-25.05h4.54v23.81h7.09v75.92h8.44v-47.19h6.74v7.19h9.21v-6.36h7.38v21.8h8.51v40.06h8.13v-20.9h12.48v11.31h15.51v17.39h63.04v5.68Z"/>
      <path class="cls-8" d="M374.31,125.51h-15.51v-11.31h-12.48v20.9h-8.13v-40.06h-8.51v-21.8h-7.38v6.36h-9.21v-7.19h-6.74v47.19h-8.44V43.67h-7.09v-23.81h-4.54v25.05h-4.02v7.24h-5.06v7.66h-21.56v-10.72h-6.77V10.4l-17.98,7.64v91.37h-7.2v6.79h-7.94v-18.7h-3.4v-3.83h-7.09v6.15h-5.26v18.76h-7.37v-16.46l-8.27-1.7-8.22,2.55v30.44h-7.75v-19.11l-10.2,3.65v5.11h-5.59v18.25h-7.14v-5.81h-24.91v-9.62h-4.92v-4.28h-9.08v4.9h-6.2v15.79h-8.08v34.81c0,4.59,129.07-16.63,174.46-15.86,45.39.77,170.65-12.64,170.65-12.64v-5.68h-63.04v-17.39Z"/>
    </g>
    <polygon class="cls-7" points="252.54 102.65 252.54 76.91 272.23 76.91 272.23 121.61 242.15 121.61 252.54 102.65"/>
  </g>
  <g id="leafMidLine">
    <path class="cls-6" d="M46.76,174.62s22.73,9.94,50.57,5.73,93.66-22.16,141.75-20.78,67.5.53,109.69-3.69,94-8.15,156.27-1.54"/>
    <path class="cls-2" d="M153.55,169.75c-80.87,18.05-97.94,31.67-97.94,31.67"/>
  </g>
  <g id="K">
    <path class="cls-8" d="M288,304.13c1.82-29.12-1.87-56.13-7.36-78.71-9.62-39.55-24.64-65.51-24.64-65.51l30.76,144.24c.43-.06.84-.06,1.23-.02Z"/>
    <path class="cls-8" d="M282.64,234.25c6.65-7,15.75-10.91,22.54-17.68,7.37-7.35,13.48-15.82,19.52-24.26,4.69-6.55,8.91-13.62,11.99-21.07,1.36-3.29,2.61-6.63,3.78-10,.42-1.22,1.45-3.05,1.45-4.37"/>
    <path class="cls-8" d="M356.39,277.98c-10.28-9.18-44.09-37.36-72.59-37.87l71.3,38.37c.43-.16.86-.33,1.29-.5Z"/>
    <path class="cls-3" d="M359.53,156.86s-7.39,21.89,26.92,42.14,26.44,10.12,26.44,10.12"/>
    <path class="cls-4" d="M399.34,152.02s-3.33,19.06,26.49,29.36"/>
    <path class="cls-4" d="M438.2,150.81s3.94,12.29,18,15.9"/>
    <path class="cls-1" d="M132.76,174.25s-27,93.37,92.25,120.37"/>
    <path class="cls-1" d="M246.95,260.49c-78.19-12.77-59.11-96.7-59.11-96.7"/>
  </g>
</svg>